<?xml version="1.0" encoding="utf-8"?>
<!-- Generator: Adobe Illustrator 16.0.0, SVG Export Plug-In . SVG Version: 6.00 Build 0)  -->
<!DOCTYPE svg PUBLIC "-//W3C//DTD SVG 1.1//EN" "http://www.w3.org/Graphics/SVG/1.1/DTD/svg11.dtd">
<svg version="1.1" id="Layer_1" xmlns="http://www.w3.org/2000/svg" xmlns:xlink="http://www.w3.org/1999/xlink" x="0px" y="0px"
	 width="270px" height="60px" viewBox="0 0 270 60" enable-background="new 0 0 270 60" xml:space="preserve">
<g>
	<g>
		<g>
			<path fill="#51B748" d="M226.897,52.498c-1.265,0-2.288-1.165-2.29-2.429c-0.002-1.265,1.022-2.361,2.286-2.362l17.861-0.056
				c1.581-0.002,3.073-0.643,4.2-1.773c1.128-1.13,1.748-2.632,1.746-4.212l-0.013-12.607c-0.003-1.264,1.021-2.323,2.287-2.323
				c0,0,0.001,0,0.002,0c1.264,0,2.288,1.05,2.289,2.314l0.014,12.588c0.004,2.805-1.092,5.455-3.083,7.451
				c-1.993,1.995-4.634,3.241-7.438,3.244l-17.859,0.165C226.898,52.498,226.897,52.498,226.897,52.498z"/>
		</g>
		<g>
			<path fill="#51B748" d="M238.308,16.269c-0.004,0-0.008,0-0.011,0l-11.661,0.175c-1.265-0.006-2.285-0.846-2.279-2.111
				c0.007-1.261,1.031-2.089,2.29-2.089c0.004,0,0.007,0,0.011,0l11.66-0.018c1.266,0.006,2.286,0.768,2.279,2.033
				C240.591,15.519,239.566,16.269,238.308,16.269z"/>
		</g>
		<g>
			<circle fill="#51B748" cx="245.67" cy="21.702" r="1.924"/>
		</g>
		<g>
			<path fill="#51B748" d="M252.381,24.32c-1.264,0-2.289-1.192-2.29-2.456c0-1.18-0.462-2.075-1.298-2.909
				c-0.835-0.833-1.943-1.076-3.123-1.076c-0.004,0-0.004,0-0.008,0c-1.263,0-2.287-1.148-2.289-2.412
				c-0.002-1.265,1.022-2.418,2.287-2.418c0.004,0,0.007,0,0.01,0c2.4,0,4.658,0.76,6.357,2.456
				c1.702,1.698,2.641,4.038,2.644,6.442c0.001,1.264-1.023,2.373-2.288,2.373C252.383,24.32,252.382,24.32,252.381,24.32z"/>
		</g>
		<g>
			<path fill="#51B748" d="M260.209,24.32c-1.264,0-2.288-1.411-2.29-2.674c-0.007-6.75-5.501-12.623-12.249-12.623
				c-0.005,0-0.011,0-0.016,0c-1.264,0-2.288-0.746-2.29-2.01c-0.002-1.265,1.022-2.016,2.287-2.016c0.007,0,0.013,0,0.019,0
				c9.271,0,16.817,7.647,16.828,16.919c0.002,1.265-1.021,2.403-2.286,2.403C260.211,24.32,260.21,24.32,260.209,24.32z"/>
		</g>
		<g>
			<path fill="#51B748" d="M226.878,34.786c-1.264,0-2.287-0.964-2.289-2.229c-0.002-1.264,1.022-2.432,2.287-2.433l25.645-0.169
				c0.001,0,0.002,0,0.003,0c1.264,0,2.287,1.194,2.289,2.457c0.002,1.266-1.022,2.318-2.287,2.319l-25.645,0.054
				C226.88,34.786,226.879,34.786,226.878,34.786z"/>
		</g>
	</g>
	<path fill="#0C173D" d="M37.49,49.426c0,1.126-0.919,2.046-2.045,2.046l-15.852,0.004c-2.915,0-5.625-1.124-7.671-3.169
		c-2.046-2.045-3.171-4.806-3.172-7.67L8.745,22.995c-0.001-2.863,1.124-5.625,3.168-7.67c2.045-2.046,4.806-3.171,7.67-3.173
		l15.852-0.003c1.125,0,2.046,0.92,2.046,2.044c0,1.126-0.92,2.046-2.045,2.046l-15.852,0.005c-3.733,0-6.75,3.019-6.749,6.751
		l0.001,6.801l21.068-0.005c1.125-0.001,2.046,0.868,2.046,2.045c0,1.125-0.92,1.994-2.045,1.994l-21.068,0.006l0.002,6.802
		c0,3.731,3.019,6.748,6.751,6.748l15.853-0.005C36.569,47.38,37.49,48.301,37.49,49.426z"/>
	<path fill="#0C173D" d="M80.796,14.182l0.008,35.232c0,1.126-0.92,2.046-2.045,2.047s-2.045-0.92-2.046-2.045l-0.007-28.278
		L64.081,40.93c-0.409,0.615-1.074,0.922-1.739,0.922c-0.665,0-1.33-0.307-1.738-0.92L47.968,21.145l0.007,28.278
		c0,1.125-0.92,2.045-2.045,2.046s-2.046-0.919-2.046-2.045L43.875,14.19c0-1.124,0.92-2.045,2.045-2.046
		c0.665,0,1.33,0.358,1.688,0.92l14.733,22.957l14.67-22.963c0.409-0.562,1.074-0.921,1.739-0.921
		C79.875,12.137,80.795,13.057,80.796,14.182z"/>
	<path fill="#51B748" d="M117.72,22.969V24.4c0,2.915-1.125,5.626-3.168,7.671c-2.045,2.047-4.806,3.172-7.67,3.173l-15.341,0.003
		l0.004,14.165c0,1.126-0.92,2.047-2.045,2.047s-2.045-0.92-2.046-2.046l-0.009-35.284c0-1.125,0.92-1.994,2.045-1.995l17.387-0.004
		c2.864,0,5.625,1.124,7.671,3.168C116.593,17.343,117.719,20.054,117.72,22.969z M113.628,22.969c0-3.733-3.018-6.8-6.751-6.799
		l-15.341,0.004l0.004,15.033l15.34-0.003c3.733-0.002,6.75-3.07,6.748-6.802V22.969z"/>
	<path fill="#51B748" d="M153.105,14.164l0.006,26.439c0.001,2.863-1.123,5.625-3.168,7.67c-2.045,2.047-4.755,3.172-7.67,3.174
		l-8.079,0.001c-2.864,0.001-5.626-1.123-7.672-3.168c-2.045-2.046-3.171-4.807-3.171-7.67l-0.007-26.438
		c0-1.125,0.921-2.045,2.045-2.045c1.125,0,2.046,0.92,2.046,2.044l0.006,26.439c0.001,3.732,3.019,6.748,6.751,6.747l8.08-0.002
		c3.733-0.001,6.749-3.019,6.748-6.751l-0.006-26.438c0-1.125,0.92-2.046,2.045-2.046S153.105,13.04,153.105,14.164z"/>
	<path fill="#51B748" d="M186.456,49.39c0,1.126-0.92,2.046-2.045,2.046l-22.603,0.006c-1.125,0-2.046-0.92-2.047-1.994
		l-0.008-35.285c0-1.124,0.92-2.044,2.045-2.045c1.126-0.001,2.046,0.919,2.046,2.045l0.008,33.188l20.558-0.005
		C185.535,47.344,186.456,48.265,186.456,49.39z"/>
	<path fill="#51B748" d="M220.256,40.331c0.001,2.965-1.124,5.728-3.221,7.824c-2.146,2.097-4.908,3.273-7.873,3.274l-16.415,0.004
		c-1.125,0-2.046-0.92-2.046-2.045c-0.001-1.125,0.919-2.047,2.045-2.047l16.415-0.004c3.886-0.001,7.004-3.172,7.003-7.007
		c0-3.886-3.12-7.056-6.955-7.055l-8.336,0.002c-5.829,0.002-10.586-4.753-10.588-10.583c-0.001-5.831,4.754-10.586,10.583-10.588
		l15.393-0.004c1.125,0,2.046,0.92,2.046,2.044c0,1.126-0.92,2.046-2.046,2.046l-15.392,0.004c-3.58,0.001-6.493,2.917-6.492,6.496
		c0.001,3.579,2.915,6.494,6.495,6.492l8.284-0.001c2.966-0.001,5.729,1.174,7.875,3.271
		C219.129,34.552,220.255,37.313,220.256,40.331z"/>
</g>
</svg>
