<svg xmlns="http://www.w3.org/2000/svg" id="Layer_1" data-name="Layer 1" viewBox="0 0 5000 5000"><defs><style>.cls-2{stroke-width:0;fill:#000}</style></defs><path d="M4400 1293.82c-14.56 16.13-28.44-18.29-41.2 17.25-9.15 2.25-23.95 19.09-28.7 27.11l-8.81 8.33-167.97 96.74c-18.46 7.51-109.16 35.68-120.72 50.6-6.04 3.77-26.78 5.99-33.61 7.45-232.97 74.08-394.43 305.4-551.15 480.21-12.8 8.92-44.27 17.99-43.54 37.52-14.49 9.86-19.59 7.02-25.6 25.85-9.75 12.33-33.85 30.6-48.53 35.77-12.34 17.37-38.41 44.77-57.29 54.81-13.65 1.21-39.93 24.96-48.96 34.78-19.98 11.34-55.43 38.48-70.27 54.64.07 2.92-12.24 24.75-7.69 26.82-7.33 3.04-15.85 9.3-18.98 16.74-5.72 26.56-12.97 11.63-24.53 26.96-4.39 8.01-2.48 24.88-7.05 32.87-9.39 10.79-27.79 7.08-39.78 3.4-1.92 133.8 3.36 274.08 3.76 408.4 3.12 39.6-4.35 14.11-23.09 40.15-13.03 23.15-3.53 32.55-37.66 23.64-19.88-6.14-20.57 26.33-35.9 30.4-14.05-.02-26.83-2.04-35.43 10.59-4.78 12.94-11.52 20.43-26.8 20.66-8.87.74-27.99 23.2-37.35 20.77-11.48 2.35-24.87 17.17-30.65 26.58-7.5 12.55-26.13 46.31-18.23 62.3-8.51 23.62-53.38 54.36-64.09 76.08-1.45 29.75-20.2 101.25 27.63 100.63 11.82-3.49 36.12 1.12 46.62 6.88 8.44 12.29 11.97 37.52 18.01 50.86 27.46 31.42 41.46 46.36 11.79 87.2-3.62 11-2.68 31.43-12.92 39.54-9.1 5.97-17.36 17.9-19.74 28.49-3.35 20.65-1.54 51.11-6.59 71.63 9.55 15.38 16.42 42.44 9.66 60.36-9.24 20.78-31.73 7.71-21.16 38.08 12.58 28.09 23.26 71.21 18.95 101.84-13.99 13.71-5.43 37.32-5.13 53.96 2.31 18.56-19.8 51.06-24.96 66.99l14.36 12.78c26.47 11.48 57.66 49.43 80.31 65.78 2.81 4.16 5.64 13.52 8.33 17.99l23.26 14.39c25.41 2.93 103.17 11.07 120.48 34.61 17.47 14.73 24.82 50.2 40.28 66.12 21.82 7.4 77.4 12.38 98.53 23.77 18.02 12.14 98.21 85.48 103.97 108.8 8.3 15.23 42.47 83.44 52.86 93.41 0-.01 21.02 9.35 21.02 9.35 3.69 3.57 66.87 59.84 70.31 59.29l6.77 1.81 52.1-1.07 3.11 1.24 31.16 24.85c1.53.48 6.69 3.63 8.69 3.54l19.78 1.11 6.54 3.07 3.58 3.5c1.07 1.49 3.5 7.05 3.79 9.07l1.13 5.67 4.11 10.33 12.88 15.79 4.49 9.74c58.56 10.34 41.69 60.04 47.25 104 2.03 9.73 11.9 17.56 16.58 25.84l2.04 6.77 1.99 14.62.45 14.11-5.46 40.77.3 6.87 4.61 19.74.42 7.86-1.62 23.49c-.16 14.24 7.48 33.96 4.76 48.47 21.17 38.39-173.04 12.32-179.61 21.99-221.86 4.79-486.03 8.98-707.9 10.28-584.7 3.65-1185.21-5.07-1769.64-25.32l-176.88-6.58c3.87-82.81 9.19-245.66 12.88-328.18 7.01-331.97 38.96-695 33.84-1023.41-5.04-4.11-11.59-32.22-18.22-34.46l-12.09-11.36-5.45-6.8c-21.85-28.08-70.18-14.14-88.54-36.05-12.89-22.68-23.34-64.64-37.76-86.5-8.14-19.42-46.73-42.27-34.73-66.4 4.13-17.16 22.66-28.75 36.68-37.19 14.33-21.42 53.19-32.73 71.65-49.42 9.55-6.52 24.02-39.56 28.88-50.34 4.11-8.09 14.71-22.54 15.39-31.68.87-10.74 5.19-47.97 11.78-55.8 9.34-16.03-9.35-64.11-3.58-81.5 6.83-12.7 11.46-32.34 11.95-46.49-.36-10.33-4.68-31.55-3.5-40.74 5.65-11.31-9.94-27.01-11.74-37.66-7.6-29.32 11.06-74.41-8.46-100.65-16.78-16.21-38.32-58.5-47.84-79.31-.79-8.22 1.28-18.37-3.53-25.61-18.05-17.35-4.21-24.52-6.3-46.41-3.43-9.73.12-33.48-4.7-42.6-6.04-13.62-25.72-33.5-20.35-50.83 15.45-37.83 7.56-60.17 1.81-97.05.64-7.43 6.3-17.68 8.42-24.68l1.09-8.14.36-25.22c-.73-5.37 6.81-13.78 9.6-17.6l3.2-11.83c2.65-1.38 1.67-4.75 3.11-6.52.41-5.27-6.57-9.35-10.83-10.08-1.48-3.86-11.14-5.17-13.52-8.19 7.82-4.46-5.6-26.35-7.59-34.14-1.65-16.6 6.62-57.08 5.31-73.66-3.01-10.17-7.53-36.41-3.65-47.04 4.7-17-.19-47.08-3.98-64.53-10.14-14.98 11.48-95.86 7.02-111.74.3-6.75-6.2-14.64-10.13-19.55-9.22-17.27 11.25-49.24 8.64-67.59-8.19-18.38-2.04-42.3-1.63-61.57 3.37-4.58 4.83-11.64 1.27-16.37-19.31-14.19-9.03-48.53-19.36-67.77-16.46-23.03-11.8-58.42-32.01-79.13-.52-1.06-2.23-3.66-2.17-4.95-2.42-1.14-5.81-3.2-5.57-6.55 9.91-25.5-23.29-48.49-.42-81.47-18.39-17.47-25.7-50.89-27.9-75.4-.75-14.6-26.93-67.53-25.78-83.3-7.17-32.87 2.14-78.66 8.62-110.76-8.09-29.99-6.05-45.16-11-71.81 2.29-12.36 12.91-25.32 12.44-38.41l-2.14-11.97-1.57-23.8-9.56-43.89 5.89-31.28c24.51-36.26 35.16-75.94 13.41-116.54l-3.49-12.72-2.25-29.09-12.59-40.88-2.42-26.15-2.26-6.83c-6.86-10.89-6.78-26.28-8.25-38.53-6.06-11.9-9.35-29.13-5.44-42.23l34.77 1.69c284.05 13.7 580.84 24.6 865.12 31.99 3.77-11.69 118.27 16.03 115.83-3.54 5.43-85.15 3.98-190.11 6.96-275.53 29.39 21.3 83.05 4.35 114.22 20.35 63.81 35.05 42.1 37.95 56.8 101.88-1.86 12.34-4.39 37.08.29 48.28 14.98 44.62 30.49 128.15 42.42 174.22 2.03 30.39-7.65 64.79 3.07 93.2 62.86 72.57 103.97 73.89 192.15 59.76 24.66 2.15 28.36 22.1 29.48 42.74 54.44 21.01 158.43-4.24 205.59 31.81 20.03 116.18 39.55 58.99 116.74 68.43 9.98-11.09 40.83-10.23 53.73-11.81l15.83-11.25c2.48-3.67 4.73-17.41 3.07-22.09l1.16-7.83 16.95-4.98c9.93-14.02 66-13.5 79.13-19.64 39.5 4.94 111.39 2.65 149.85 13.07 35.43 31.41 108.45 44.56 152.75 55.75 7.81 8.62 18.97 25.83 1.18 29.03-18.07 4.05-35.49 6.29-35.64 28.45 4 14.29 20.02 11.87 30.89 15.87 85.74-15.95 93.28-6.91 97.74 80.47.49 9.68 18.25 27.08 22.47 35.08 11.57 20.12 15.25 57.76 45.59 38.77 42.03-18.87-6.92-48.93 22.09-76.85 25.59-14.37 76.55-15.29 105.06-12.72 16.69 6.7 22.24 27.72 25.24 43.92 5.74 38 55.64 54.08 85.67 66.86 12.63 3.9 54.97 1.59 62.73 19.43 12.33 18.22 21.87 20.06 6.43 41.95 7.35 11.22 37.26 14.72 49.35 15.75l10.56-.85c3.24.08 6.66 4.67 8.38 6.89 1.52 7.18-1.74 14.33-2.49 21.28 11.14 8.08 49.53-6.92 61.34 1.27 16.33 17.19 34.33-.52 49.59-7.87l44.48-6.31c10.35-6 28.38-23.15 35.39-33.02l65.12-49.09 21.17-11.08 9.81-7.43c18.88-10.62 72.72-53.85 84.64-14.7-5.79 7.66-6.99 16.96-1.74 25.17 4.75 3.71 11.47 7.1 15.72 11.46 7.72 11.61 6.66 33.11 14.4 44.81 26.52 28.31 69.78-4.72 99.79-6.63 23.78 22.11 22.54 14.86 48.44 4.68 39.38 15.27 169.68-43.96 208.64-11.81 12.77 14.87 32.72 55.01 49.41 66.08 46.54 32.73 55.94 1.37 99.66-9.7 11.23-2.51 24.26 5.72 34.64 8.78 18.98-10.47 46.55 1.25 65.92 2.17Z" style="stroke-width:0;fill:#e5cf5f"/><path d="M1280.74 3344.74c-197.63 13.99-124.88-75.89-137.19-209.98 75.06 18.36 175.21 31.63 218.89-32.59 68.14-77.99 11.48-778.93 23.26-884.28h232.38c-43.21 307.07 196.9 1155.03-337.34 1126.85ZM2550.9 3025.36c5.97 352.23-474.56 374.78-714.67 253.4-24.96-380.74 48.12-112.85 328.53-125.95 108.95 9.67 199.72-74.73 140.24-173.57-58.84-81.55-268.29-138.35-345.76-213.29-70.12-61.75-111.23-137.85-110.27-236.18-1.54-357.59 449.71-361.94 696.67-234.66-100.37 304.15-99.04 106.47-333.03 116.21-129.47-13.54-188.91 143.43-76.88 208.81 153.89 87.43 438.89 182.18 415.17 405.22Z" class="cls-2"/></svg>