<?xml version="1.0" encoding="utf-8"?>
<!-- Generator: Adobe Illustrator 20.0.0, SVG Export Plug-In . SVG Version: 6.00 Build 0)  -->
<svg version="1.1" id="Layer_1" xmlns="http://www.w3.org/2000/svg" xmlns:xlink="http://www.w3.org/1999/xlink" x="0px" y="0px"
	 viewBox="0 0 864.6 400" style="enable-background:new 0 0 864.6 400;" xml:space="preserve">
<style type="text/css">
	.st0{fill:#EE3248;}
</style>
<g id="XMLID_425_">
	<g id="XMLID_441_">
		<path id="XMLID_355_" class="st0" d="M568.5,139.1h-35.4c-1,0-1.8,0.8-1.8,1.8v20.5c0,1,0.8,1.8,1.8,1.8h35.4c1,0,1.8-0.8,1.8-1.8
			v-20.5C570.3,139.9,569.5,139.1,568.5,139.1z"/>
		<path id="XMLID_354_" class="st0" d="M567.9,169.6H500c-1,0-2,0.8-2.2,1.7l-8.7,33.4v0l-0.5,1.7L478,171c-0.3-0.9-1.3-1.7-2.3-1.7
			h-26.4c-1,0-2,0.8-2.3,1.7l-9.9,33.4l0,0l-0.5,1.7l-0.4-1.7v0l-4.2-16.5l-4.2-16.5c-0.2-0.9-1.2-1.7-2.2-1.7h-53.4v-28.7
			c0-1-1.3-2-2.3-1.6l-33.5,10.5c-1,0.3-1.8,0.8-1.8,1.8v18.1h-8.8c-1,0-1.8,0.8-1.8,1.8v25.5c0,1,0.8,1.8,1.8,1.8h8.8v31.2
			c0,22.1,11.9,32.3,34.2,32.3c9.1,0,18.1-2,24-5.1v-1.8c0,0,0-18.9,0-24.9c0-1.4-1.1-1.7-1.9-1.4c-3.6,1.5-6.4,1.9-9.6,1.9
			c-6,0-9.1-2.5-9.1-9.3v-22.9h19.1c1,0,1.8-0.8,1.8-1.8v-21.5l25.1,83.7c0.3,0.9,1.3,1.7,2.3,1.7h27.8c1,0,2-0.8,2.3-1.7l11.9-37.1
			l6.1,19.4l5.5,17.7c0.3,0.9,1.3,1.7,2.3,1.7h27.9c1,0,2-0.8,2.3-1.7l25.5-84v83.9c0,1,0.8,1.8,1.8,1.8h34.1c1,0,1.8-0.8,1.8-1.8
			v-87.7C569.7,170.5,568.9,169.6,567.9,169.6z"/>
		<path id="XMLID_353_" class="st0" d="M612.7,139.1h-34.1c-1,0-1.8,0.8-1.8,1.8v118.2c0,1,0.8,1.8,1.8,1.8h34.1
			c1,0,1.8-0.8,1.8-1.8V140.9C614.5,139.9,613.7,139.1,612.7,139.1z"/>
		<path id="XMLID_352_" class="st0" d="M658.2,139.1h-35.4c-1,0-1.8,0.8-1.8,1.8v20.5c0,1,0.8,1.8,1.8,1.8h35.4c1,0,1.8-0.8,1.8-1.8
			v-20.5C660,139.9,659.2,139.1,658.2,139.1z"/>
		<path id="XMLID_351_" class="st0" d="M657.5,169.6h-34.1c-1,0-1.8,0.8-1.8,1.8v87.7c0,1,0.8,1.8,1.8,1.8h34.1c1,0,1.8-0.8,1.8-1.8
			v-87.7C659.3,170.5,658.5,169.6,657.5,169.6z"/>
		<path id="XMLID_442_" class="st0" d="M713.9,167.5c-29.8,0-51.1,21.9-51.1,47.4v0.3c0,25.5,21.1,47.1,50.7,47.1
			c29.8,0,51.1-21.9,51.1-47.4v-0.3C764.6,189,743.6,167.5,713.9,167.5z M728.5,215.2c0,8.6-6.1,15.8-14.6,15.8
			c-8.3,0-14.9-7.1-14.9-16.1v-0.3c0-8.6,6.1-15.8,14.6-15.8c8.3,0,14.9,7.1,14.9,16.1V215.2z"/>
	</g>
	<g id="XMLID_426_">
		<path id="XMLID_434_" class="st0" d="M200,100c-55.2,0-100,44.8-100,100s44.8,100,100,100c55.2,0,100-44.8,100-100
			S255.2,100,200,100z M200,273.6c-40.7,0-73.6-33-73.6-73.6c0-40.7,33-73.6,73.6-73.6c40.7,0,73.6,33,73.6,73.6
			C273.6,240.7,240.7,273.6,200,273.6z"/>
		<circle id="XMLID_346_" class="st0" cx="224.9" cy="175.1" r="20.8"/>
		<circle id="XMLID_345_" class="st0" cx="224.9" cy="224.9" r="20.8"/>
		<circle id="XMLID_344_" class="st0" cx="175.1" cy="224.9" r="20.8"/>
		<circle id="XMLID_342_" class="st0" cx="175.1" cy="175.1" r="20.8"/>
	</g>
</g>
<g>
	<path class="st0" d="M764.1,173.4v5.2h-0.8v-5.2h-1.9v-0.7h4.6l0.1,0.7H764.1z"/>
	<path class="st0" d="M772.6,178.7l-0.4-4.8l-1.9,4.8h-0.6l-1.9-4.8l-0.4,4.8h-0.8l0.5-6h1l1.9,4.9l1.9-4.9h1l0.5,6H772.6z"/>
</g>
</svg>
