<?xml version="1.0" encoding="UTF-8"?>
<svg width="412px" height="324px" viewBox="0 0 412 324" version="1.1" xmlns="http://www.w3.org/2000/svg" xmlns:xlink="http://www.w3.org/1999/xlink">
    <!-- Generator: Sketch 41.2 (35397) - http://www.bohemiancoding.com/sketch -->
    <title>picture-calendar-icon</title>
    <desc>Created with Sketch.</desc>
    <defs></defs>
    <g id="Page-1" stroke="none" stroke-width="1" fill="none" fill-rule="evenodd">
        <g id="Artboard" transform="translate(-169.000000, -61.000000)" fill="#FFFFFF">
            <g id="calendar-white" transform="translate(169.000000, 61.000000)">
                <path d="M52.47,51.148 L52.47,14.546 C52.47,6.511 58.981,0 67.014,0 C75.046,0 81.56,6.511 81.56,14.546 L81.56,51.149 C81.56,59.183 75.046,65.695 67.014,65.695 C58.98,65.694 52.47,59.182 52.47,51.148 Z M263.533,65.761 C271.564,65.761 278.074,59.248 278.074,51.215 L278.074,14.611 C278.074,6.578 271.564,0.066 263.533,0.066 C255.498,0.066 248.986,6.578 248.986,14.611 L248.986,51.215 C248.986,59.248 255.498,65.761 263.533,65.761 Z M94.515,186.073 C108.338,186.073 119.542,174.87 119.542,161.047 C119.542,147.226 108.338,136.022 94.515,136.022 C80.696,136.022 69.489,147.226 69.489,161.047 C69.488,174.87 80.695,186.073 94.515,186.073 Z M196.426,157.845 L154.94,216.786 L132.395,193.547 L68.781,265.825 L267.629,265.825 L196.426,157.845 Z M412,291.133 L329.796,291.133 L329.796,323.153 L0,323.153 L0,35.78 L34.889,35.78 L34.889,50.616 C34.889,68.332 49.3,82.742 67.014,82.742 C84.727,82.742 99.14,68.332 99.14,50.616 L99.14,35.78 L231.406,35.78 L231.406,50.682 C231.406,68.397 245.818,82.808 263.534,82.808 C281.246,82.808 295.657,68.397 295.657,50.682 L295.657,35.78 L329.797,35.78 L412,291.133 Z M297.775,113.052 L32.02,113.052 L32.02,291.133 L297.776,291.133 L297.776,113.052 L297.775,113.052 Z M364.999,257.702 L329.796,139.582 L329.796,257.702 L364.999,257.702 Z" id="picture-calendar-icon"></path>
            </g>
        </g>
    </g>
</svg>