<?xml version="1.0" encoding="utf-8"?>
<!-- License Agreement at http://iconmonstr.com/license/ -->
<!DOCTYPE svg PUBLIC "-//W3C//DTD SVG 1.1//EN" "http://www.w3.org/Graphics/SVG/1.1/DTD/svg11.dtd">
<svg version="1.1" xmlns="http://www.w3.org/2000/svg" xlink="http://www.w3.org/1999/xlink" x="0px" y="0px" viewBox="0 0 512 512" enable-background="new 0 0 512 512" space="preserve"> <path id="picture-calendar-icon" d="M102.47,145.572V108.97c0-8.035,6.511-14.546,14.544-14.546c8.032,0,14.546,6.511,14.546,14.546
v36.603c0,8.034-6.514,14.546-14.546,14.546C108.98,160.118,102.47,153.606,102.47,145.572z M313.533,160.185
c8.031,0,14.541-6.513,14.541-14.546v-36.604c0-8.033-6.51-14.545-14.541-14.545c-8.035,0-14.547,6.512-14.547,14.545v36.604
C298.986,153.672,305.498,160.185,313.533,160.185z M144.515,280.497c13.823,0,25.027-11.203,25.027-25.026
c0-13.821-11.204-25.025-25.027-25.025c-13.819,0-25.026,11.204-25.026,25.025C119.488,269.294,130.695,280.497,144.515,280.497z
M246.426,252.269L204.94,311.21l-22.545-23.239l-63.614,72.278h198.848L246.426,252.269z M462,385.557h-82.204v32.02H50V130.204
h34.889v14.836c0,17.716,14.411,32.126,32.125,32.126c17.713,0,32.126-14.41,32.126-32.126v-14.836h132.266v14.902
c0,17.715,14.412,32.126,32.128,32.126c17.712,0,32.123-14.411,32.123-32.126v-14.902h34.14L462,385.557z M347.775,207.476H82.02
v178.081h265.756V207.476z M414.999,352.126l-35.203-118.12v118.12H414.999z"></path> </svg>