<svg height="233.93333" viewBox="0 0 1043.48 233.93333" width="1043.48" xmlns="http://www.w3.org/2000/svg"><g transform="matrix(.13333333 0 0 -.13333333 0 233.93333)"><g fill="#171a1e"><path d="m2356.78 653.961c-26.32-35.43-71.88-84.02-128.58-84.02h-126.55c-22.27 0-46.57 8.09-62.77 18.219-21.26 12.149-61.75 53.649-73.9 71.871-12.16 18.239-16.2 38.481-16.2 57.719v318.9c0 19.24 4.04 38.48 16.2 56.7 12.15 17.21 52.64 60.74 73.9 72.89 16.2 9.12 40.5 18.23 62.77 18.23h126.55c56.7 0 102.26-49.61 128.58-84.03 8.1-11.14 12.15-19.23 21.26-35.44l-103.26-29.35s-30.37 37.46-45.56 46.57c-1.02 1.01-3.04 1.01-4.05 1.01h-119.47c-2.02 0-4.05-1.01-4.05-1.01-13.16-7.09-35.43-28.35-45.55-44.55-1.02-2.02-1.02-9.11-1.02-11.13 0-1.02 0-307.79 0-307.79 0-12.141 31.39-38.461 46.57-46.57 1.01-1 6.08-1 7.09-1h115.42c1.01 0 3.03 0 5.06 1 21.26 10.129 45.56 47.59 45.56 47.59l103.26-27.329c-8.1-18.23-13.16-27.339-21.26-38.48"/><path d="m2471.21 574.988v127.571h124.53v-127.571z"/><path d="m3029.06 574.988v250.075h-220.7v-250.075h-106.31v605.442h106.31v-254.129h220.7v254.129h106.31v-605.442z"/><path d="m3241.69 574.988v127.571h124.53v-127.571z"/><path d="m4026.33 1039.69s0 5.07-1.02 7.09c-6.07 11.13-22.27 31.39-32.39 32.4h-183.25v-164.008h178.18c9.11 0 29.37 19.234 37.46 33.406 0 0 1.02 2.02 1.02 4.055zm88.08-149.835c-9.12-13.164-40.5-43.535-54.67-53.66-8.1-6.074-17.21-11.132-26.32-14.172l120.48-247.035h-115.42l-112.38 238.942h-116.43v-238.942h-106.3v605.442h284.48c24.3 0 51.64-8.11 71.89-22.28 14.17-10.13 45.55-42.52 54.67-55.69 12.14-18.23 18.22-40.49 18.22-61.75v-89.097c0-22.273-6.08-43.535-18.22-61.758"/><path d="m4358.43 719.77s0-3.04 1.01-4.051c12.15-18.231 33.41-37.449 44.55-43.539 2.02-1 4.05-1 5.05-1h145.8s3.03 0 5.05 1c11.15 6.09 32.41 25.308 44.56 43.539 1.01 2.031 1.01 4.051 1.01 4.051v312.84s0 4.04-1.01 5.06c-12.15 18.22-33.41 38.47-44.56 44.55-2.02 1.01-4.04 1.01-5.05 1.01h-145.8s-4.04 0-5.05-1.01c-11.14-6.08-32.4-26.33-44.55-44.55-1.01-2.02-1.01-5.06-1.01-5.06zm337.14-58.719c-13.17-17.211-52.65-60.742-73.92-72.891-16.19-10.129-41.5-18.219-62.76-18.219h-153.89c-22.27 0-46.57 8.09-62.77 18.219-21.26 12.149-61.76 55.68-73.91 72.891-12.15 18.219-16.2 38.48-16.2 57.699v316.9c0 19.23 4.05 39.48 16.2 57.7 12.15 17.21 52.65 60.74 73.91 72.89 16.2 10.13 40.5 18.23 62.77 18.23h153.89c21.26 0 46.57-8.1 62.76-18.23 21.27-12.15 60.75-55.68 73.92-72.89 12.15-18.22 16.19-38.47 16.19-57.7v-316.9c0-19.219-4.04-39.48-16.19-57.699"/><path d="m5164.33 716.73v71.875c0 3.047-1 5.071-1 5.071-9.12 16.203-28.35 34.422-37.46 34.422h-177.18v-151.868h178.18c9.11 0 29.37 18.231 36.46 33.411 0 0 1 3.039 1 7.089zm0 250.071v71.879c0 2.03-1 5.06-1 5.06-9.12 16.21-28.35 35.44-37.46 35.44h-177.18v-152.879h178.18c9.11 0 29.37 18.222 36.46 33.41 0 0 1 2.019 1 7.09zm89.09-314.86c-9.11-13.171-39.48-44.543-53.65-54.671-20.25-14.18-48.6-22.282-72.9-22.282h-284.48v605.442h284.48c26.33 0 52.65-9.12 72.9-23.3 14.17-10.11 44.54-41.5 53.65-54.67 13.17-19.23 17.22-42.51 17.22-62.77v-74.913c0-42.527-16.2-64.793-39.48-88.086 23.28-23.281 39.48-44.539 39.48-87.07v-76.941c0-21.258-5.07-42.532-17.22-60.739"/><path d="m5414.43 574.988v605.442h106.3v-605.442z"/><path d="m5992.53 574.988-209.57 401.938v-401.938h-106.3v605.442h114.39l207.55-407v407h106.31v-605.442z"/><path d="m6676.94 661.051c-12.15-18.231-52.65-60.742-73.91-72.891-16.2-9.109-41.51-18.219-62.77-18.219h-176.16c-59.73 0-102.26 48.59-128.58 84.02-8.1 11.141-10.12 16.187-18.22 31.391l100.23 33.398s20.25-28.34 44.55-46.57c0 0 2.02-1 7.09-1h166.03c4.04 0 6.08 1 6.08 1 15.18 8.109 45.55 38.48 45.55 46.57v59.738c0 9.114-7.09 16.203-12.15 17.207l-263.23 74.922c-51.63 14.184-78.96 63.789-78.96 110.352v54.681c0 17.21 3.03 39.48 15.18 57.7s53.66 60.74 74.92 72.89c16.2 9.12 40.5 18.23 62.77 18.23h149.84c60.74 0 102.26-49.61 128.58-84.03 8.09-11.14 13.16-20.25 20.24-35.44l-102.25-29.35s-23.29 33.4-44.55 46.57c0 0-1.01 1.01-6.07 1.01h-142.75c-4.05 0-6.08-1.01-6.08-1.01-16.19-8.11-43.53-36.45-43.53-44.55v-50.623c0-9.113 6.07-16.195 11.14-17.207l264.24-76.945c51.63-14.172 78.97-64.797 78.97-110.352v-63.793c0-17.199-3.04-39.48-16.2-57.699"/><path d="m6913.87 719.77s0-3.04 1.01-4.051c12.16-18.231 33.42-37.449 44.55-43.539 2.02-1 4.05-1 5.06-1h145.79s3.04 0 5.06 1c11.14 6.09 32.4 25.308 44.55 43.539 1.02 2.031 1.02 4.051 1.02 4.051v312.84s0 4.04-1.02 5.06c-12.15 18.22-33.41 38.47-44.55 44.55-2.02 1.01-4.04 1.01-5.06 1.01h-145.79s-4.04 0-5.06-1.01c-11.13-6.08-32.39-26.33-44.55-44.55-1.01-2.02-1.01-5.06-1.01-5.06zm337.14-58.719c-13.16-17.211-52.64-60.742-73.91-72.891-16.19-10.129-41.51-18.219-62.77-18.219h-153.88c-22.28 0-46.58 8.09-62.78 18.219-21.26 12.149-61.76 55.68-73.9 72.891-12.15 18.219-16.2 38.48-16.2 57.699v316.9c0 19.23 4.05 39.48 16.2 57.7 12.14 17.21 52.64 60.74 73.9 72.89 16.2 10.13 40.5 18.23 62.78 18.23h153.88c21.26 0 46.58-8.1 62.77-18.23 21.27-12.15 60.75-55.68 73.91-72.89 12.15-18.22 16.19-38.47 16.19-57.7v-316.9c0-19.219-4.04-39.48-16.19-57.699"/><path d="m7713.71 574.988-209.57 401.938v-401.938h-106.3v605.442h114.39l207.55-407v407h106.31v-605.442z"/></g><path d="m558.973 1336.92 163.422 94.35v-393.05l37.293-21.54 37.351 21.57v393.01l163.406-94.34 37.325 64.65-238.067 137.44-238.055-137.44z" fill="#36a3e1"/><path d="m462 473.582-163.41 94.34 340.379 196.516v43.085l-37.348 21.551-340.359-196.504v188.692h-74.645v-274.891l238.059-137.441z" fill="#36a3e1"/><path d="m1444.78 481.73-685.077-395.5308-685.0585 395.5308v791.05l685.0585 395.52 685.077-395.52zm-685.077 1272.77-759.703-438.62v-877.251l759.703-438.629 759.717 438.629v877.251z" fill="#36a3e1"/><path d="m1057.42 1280.93 163.41-94.34-461.142-266.254-461.098 266.254 163.41 94.34-37.324 64.65-238.059-137.45v-274.884h74.645v188.694l461.148-266.252-.015-532.458-163.422 94.348-37.325-64.648 238.055-137.442 238.067 137.453-37.325 64.649-163.406-94.34v532.484l461.121 266.206v-188.694h74.64v274.884l-238.05 137.44z" fill="#36a3e1"/><path d="m1258.16 821.262v-188.692l-340.379 196.516-37.301-21.535v-43.125l340.35-196.504-163.41-94.34 37.33-64.652 238.05 137.441v274.891z" fill="#36a3e1"/><path d="m1533.17 279.398h-9.87v49.954h-.3l-19.6-49.954h-6.24l-19.61 49.954h-.29v-49.954h-9.88v59.832h15.25l17.86-45.46 17.58 45.46h15.1zm-77.99 51.84h-18.73v-51.84h-9.88v51.84h-18.74v7.992h47.35z" fill="#36a3e1"/></g></svg>