<svg enable-background="new 0 0 864.6 400" viewBox="0 0 864.6 400" xmlns="http://www.w3.org/2000/svg"><g fill="#ee3248"><path d="m568.5 139.1h-35.4c-1 0-1.8.8-1.8 1.8v20.5c0 1 .8 1.8 1.8 1.8h35.4c1 0 1.8-.8 1.8-1.8v-20.5c0-1-.8-1.8-1.8-1.8z"/><path d="m567.9 169.6h-67.9c-1 0-2 .8-2.2 1.7l-8.7 33.4-.5 1.7-10.6-35.4c-.3-.9-1.3-1.7-2.3-1.7h-26.4c-1 0-2 .8-2.3 1.7l-9.9 33.4-.5 1.7-.4-1.7-4.2-16.5-4.2-16.5c-.2-.9-1.2-1.7-2.2-1.7h-53.4v-28.7c0-1-1.3-2-2.3-1.6l-33.5 10.5c-1 .3-1.8.8-1.8 1.8v18.1h-8.8c-1 0-1.8.8-1.8 1.8v25.5c0 1 .8 1.8 1.8 1.8h8.8v31.2c0 22.1 11.9 32.3 34.2 32.3 9.1 0 18.1-2 24-5.1v-1.8s0-18.9 0-24.9c0-1.4-1.1-1.7-1.9-1.4-3.6 1.5-6.4 1.9-9.6 1.9-6 0-9.1-2.5-9.1-9.3v-22.9h19.1c1 0 1.8-.8 1.8-1.8v-21.5l25.1 83.7c.3.9 1.3 1.7 2.3 1.7h27.8c1 0 2-.8 2.3-1.7l11.9-37.1 6.1 19.4 5.5 17.7c.3.9 1.3 1.7 2.3 1.7h27.9c1 0 2-.8 2.3-1.7l25.5-84v83.9c0 1 .8 1.8 1.8 1.8h34.1c1 0 1.8-.8 1.8-1.8v-87.7c-.1-1-.9-1.9-1.9-1.9z"/><path d="m612.7 139.1h-34.1c-1 0-1.8.8-1.8 1.8v118.2c0 1 .8 1.8 1.8 1.8h34.1c1 0 1.8-.8 1.8-1.8v-118.2c0-1-.8-1.8-1.8-1.8z"/><path d="m658.2 139.1h-35.4c-1 0-1.8.8-1.8 1.8v20.5c0 1 .8 1.8 1.8 1.8h35.4c1 0 1.8-.8 1.8-1.8v-20.5c0-1-.8-1.8-1.8-1.8z"/><path d="m657.5 169.6h-34.1c-1 0-1.8.8-1.8 1.8v87.7c0 1 .8 1.8 1.8 1.8h34.1c1 0 1.8-.8 1.8-1.8v-87.7c0-.9-.8-1.8-1.8-1.8z"/><path d="m713.9 167.5c-29.8 0-51.1 21.9-51.1 47.4v.3c0 25.5 21.1 47.1 50.7 47.1 29.8 0 51.1-21.9 51.1-47.4v-.3c0-25.6-21-47.1-50.7-47.1zm14.6 47.7c0 8.6-6.1 15.8-14.6 15.8-8.3 0-14.9-7.1-14.9-16.1v-.3c0-8.6 6.1-15.8 14.6-15.8 8.3 0 14.9 7.1 14.9 16.1z"/><path d="m200 100c-55.2 0-100 44.8-100 100s44.8 100 100 100 100-44.8 100-100-44.8-100-100-100zm0 173.6c-40.7 0-73.6-33-73.6-73.6 0-40.7 33-73.6 73.6-73.6 40.7 0 73.6 33 73.6 73.6 0 40.7-32.9 73.6-73.6 73.6z"/><circle cx="224.9" cy="175.1" r="20.8"/><circle cx="224.9" cy="224.9" r="20.8"/><circle cx="175.1" cy="224.9" r="20.8"/><circle cx="175.1" cy="175.1" r="20.8"/><path d="m764.1 173.4v5.2h-.8v-5.2h-1.9v-.7h4.6l.1.7z"/><path d="m772.6 178.7-.4-4.8-1.9 4.8h-.6l-1.9-4.8-.4 4.8h-.8l.5-6h1l1.9 4.9 1.9-4.9h1l.5 6z"/></g></svg>