<svg width="326" height="65" viewBox="0 0 326 65" xmlns="http://www.w3.org/2000/svg">
  <title>
    2
  </title>
  <g fill="none">
    <g fill="#2B2D42">
      <path d="M44.22 6.915H19.642c-2.375 0-4.306 2.084-4.306 4.652v41.866c0 2.566 1.931 4.652 4.306 4.652H49.79c2.375 0 4.306-2.086 4.306-4.652v-35.85L44.22 6.916zM19.642 53.433V11.567h21.533v9.303h8.614l.002 32.563H19.642z"/>
      <path d="M5.983 32.534a9.563 9.563 0 0 1 1.949 1.442c.583.559 1.075 1.263 1.479 2.113.403.85.706 1.867.907 3.052.202 1.185.303 2.605.303 4.26v7.177c0 2.102.045 3.857.134 5.266.09 1.408.37 2.549.84 3.42.471.873 1.2 1.488 2.185 1.845.986.358 2.398.537 4.235.537V65h-.538c-2.15 0-3.943-.246-5.377-.738-1.434-.492-2.566-1.207-3.395-2.146-.83-.94-1.412-2.113-1.748-3.522-.336-1.409-.504-3.007-.504-4.796V40.784c0-.805-.123-1.598-.37-2.381a5.958 5.958 0 0 0-1.176-2.113 6.363 6.363 0 0 0-2.017-1.543c-.806-.402-1.77-.604-2.89-.604v-3.286c1.12 0 2.084-.202 2.89-.604a6.363 6.363 0 0 0 2.017-1.543c.538-.626.93-1.33 1.176-2.113.247-.783.37-1.576.37-2.381V11.202c0-1.833.168-3.443.504-4.83.336-1.386.919-2.548 1.748-3.488.829-.939 1.96-1.654 3.395-2.146C13.534.246 15.326 0 17.477 0h.538v3.354c-1.837 0-3.249.179-4.235.537-.986.357-1.714.972-2.185 1.844-.47.872-.75 2.013-.84 3.421-.09 1.409-.134 3.164-.134 5.266V21.6c0 1.654-.101 3.085-.303 4.293-.201 1.207-.504 2.236-.907 3.085-.404.85-.896 1.554-1.48 2.113a9.563 9.563 0 0 1-1.948 1.443zm57.507 0a9.563 9.563 0 0 0-1.95 1.442c-.582.559-1.075 1.263-1.478 2.113-.403.85-.706 1.867-.907 3.052-.202 1.185-.303 2.605-.303 4.26v7.177c0 2.102-.045 3.857-.134 5.266-.09 1.408-.37 2.549-.84 3.42-.471.873-1.2 1.488-2.185 1.845-.986.358-2.398.537-4.235.537V65h.538c2.15 0 3.943-.246 5.377-.738 1.434-.492 2.566-1.207 3.395-2.146.829-.94 1.412-2.113 1.748-3.522.336-1.409.504-3.007.504-4.796V40.784c0-.805.123-1.598.37-2.381a5.958 5.958 0 0 1 1.176-2.113 6.363 6.363 0 0 1 2.016-1.543c.807-.402 1.77-.604 2.89-.604v-3.286c-1.12 0-2.083-.202-2.89-.604a6.363 6.363 0 0 1-2.016-1.543 5.958 5.958 0 0 1-1.177-2.113 7.884 7.884 0 0 1-.37-2.381V11.202c0-1.833-.167-3.443-.503-4.83-.336-1.386-.92-2.548-1.748-3.488-.83-.939-1.96-1.654-3.395-2.146C55.94.246 54.147 0 51.996 0h-.538v3.354c1.837 0 3.249.179 4.235.537.986.357 1.714.972 2.184 1.844.471.872.751 2.013.84 3.421.09 1.409.135 3.164.135 5.266V21.6c0 1.654.101 3.085.303 4.293.201 1.207.504 2.236.907 3.085.403.85.896 1.554 1.479 2.113a9.563 9.563 0 0 0 1.95 1.443z"/>
    </g>
    <g transform="translate(22.827 29.601)">
      <ellipse fill="#EB503E" cx="16.971" cy="16.944" rx="16.971" ry="16.944"/>
      <path d="M14.093 5.945h6.55v5.057L19.378 21.16h-4.05L14.093 11V5.946zm.226 16.76h6.114v5.435h-6.114v-5.435z" fill="#EFEFEF"/>
    </g>
    <path d="M113.689 13.528v7.555h-11.877v31.809h-8.865v-31.81H81.07v-7.554h32.619zm17.218-.454c5.91 0 10.438 1.05 13.582 3.152 3.145 2.102 4.717 5.368 4.717 9.799 0 2.764-.635 5.008-1.904 6.73-1.27 1.724-3.097 3.077-5.484 4.062a54.44 54.44 0 0 1 2.5 3.38 96.362 96.362 0 0 1 2.586 3.976 78.002 78.002 0 0 1 2.472 4.317 106.564 106.564 0 0 1 2.217 4.402h-9.945c-.72-1.288-1.45-2.594-2.188-3.92a94.225 94.225 0 0 0-2.273-3.862 106.125 106.125 0 0 0-2.302-3.55 38.463 38.463 0 0 0-2.273-3.039h-4.376v14.371h-8.865V14.096a50.278 50.278 0 0 1 5.996-.795 76.536 76.536 0 0 1 5.54-.227zm.512 7.555c-.644 0-1.222.018-1.733.056-.512.038-.995.076-1.45.114v10.679h2.5c3.335 0 5.721-.417 7.161-1.25 1.44-.833 2.16-2.253 2.16-4.26 0-1.931-.73-3.304-2.188-4.118-1.459-.814-3.609-1.221-6.45-1.221zm53.986 32.263a98.861 98.861 0 0 0-1.392-4.203 389.599 389.599 0 0 1-1.506-4.317h-15.344a389.586 389.586 0 0 1-1.506 4.317 98.863 98.863 0 0 0-1.392 4.203h-9.206a700.36 700.36 0 0 1 4.205-11.758 411.842 411.842 0 0 1 3.893-10.168c1.27-3.18 2.52-6.2 3.75-9.06a200.338 200.338 0 0 1 3.836-8.378h8.468a301.657 301.657 0 0 1 7.586 17.438c1.27 3.181 2.567 6.57 3.893 10.168a700.356 700.356 0 0 1 4.205 11.758h-9.49zm-10.627-30.446c-.19.568-.473 1.344-.852 2.33a1219.408 1219.408 0 0 0-2.927 7.668 262.69 262.69 0 0 0-1.79 4.884h11.195a570.528 570.528 0 0 0-1.762-4.885 168.234 168.234 0 0 0-1.62-4.26 343.735 343.735 0 0 1-1.335-3.408 193.36 193.36 0 0 0-.909-2.329zm41.768 31.241c-6.402 0-11.28-1.78-14.633-5.34-3.353-3.559-5.029-8.614-5.029-15.165 0-3.257.511-6.163 1.534-8.72 1.023-2.555 2.425-4.714 4.206-6.475 1.78-1.76 3.902-3.095 6.364-4.004 2.463-.91 5.134-1.364 8.013-1.364 1.667 0 3.182.124 4.546.37 1.364.246 2.557.53 3.58.852 1.023.322 1.876.653 2.557.994.682.34 1.175.606 1.478.795l-2.557 7.157c-1.213-.644-2.624-1.193-4.234-1.647-1.61-.455-3.438-.682-5.484-.682-1.364 0-2.699.227-4.006.682a9.06 9.06 0 0 0-3.467 2.187c-1.004 1.003-1.809 2.3-2.415 3.89-.606 1.591-.909 3.522-.909 5.794 0 1.818.199 3.513.597 5.084.398 1.572 1.042 2.925 1.932 4.061.89 1.136 2.055 2.036 3.495 2.699 1.44.662 3.182.994 5.228.994 1.288 0 2.443-.076 3.466-.228a25.749 25.749 0 0 0 2.728-.54 14.327 14.327 0 0 0 2.103-.71 91 91 0 0 0 1.648-.738l2.443 7.1c-1.25.758-3.012 1.44-5.285 2.045-2.273.606-4.906.91-7.899.91zm42.11-.795a70.68 70.68 0 0 0-2.814-4.175 72.835 72.835 0 0 0-3.523-4.487 77.888 77.888 0 0 0-3.95-4.317 41.939 41.939 0 0 0-4.09-3.664v16.643h-8.866V13.528h8.865V28.41a278.332 278.332 0 0 0 6.961-7.583c2.33-2.631 4.5-5.064 6.507-7.299h10.513a304.973 304.973 0 0 1-8.098 9.202 284.51 284.51 0 0 1-8.552 8.918c3.144 2.613 6.185 5.718 9.12 9.316 2.937 3.597 5.75 7.573 8.44 11.928h-10.514z" fill="#2B2D42"/>
    <path d="M292.148 38.294c0 2.31-.284 4.393-.853 6.248-.568 1.856-1.416 3.437-2.543 4.743-1.127 1.307-2.533 2.31-4.22 3.01-1.685.701-3.645 1.051-5.88 1.051-1.024 0-2.028-.061-3.013-.184a27.121 27.121 0 0 1-3.097-.582l.398-4.545c.038-.416.194-.752.469-1.008.275-.255.677-.383 1.208-.383.322 0 .743.066 1.264.199.52.132 1.18.198 1.975.198 1.08 0 2.036-.156 2.87-.468a4.857 4.857 0 0 0 2.088-1.491c.559-.682.98-1.567 1.264-2.656.284-1.088.427-2.41.427-3.962v-26.64h7.643v26.47zm30.317-19c-.208.416-.45.71-.724.88-.275.17-.602.256-.98.256-.38 0-.806-.147-1.28-.44a43.41 43.41 0 0 0-1.676-.98 13.692 13.692 0 0 0-2.258-.98c-.862-.294-1.88-.44-3.055-.44-1.06 0-1.984.127-2.77.383s-1.45.61-1.99 1.065a4.25 4.25 0 0 0-1.207 1.633 5.359 5.359 0 0 0-.398 2.088c0 .965.27 1.77.81 2.414.54.643 1.255 1.193 2.145 1.647.89.454 1.904.861 3.04 1.221 1.137.36 2.297.743 3.481 1.15 1.184.407 2.344.88 3.481 1.42 1.137.54 2.15 1.222 3.04 2.045.89.824 1.606 1.832 2.146 3.025.54 1.193.81 2.641.81 4.345 0 1.856-.318 3.593-.953 5.212a12.023 12.023 0 0 1-2.784 4.232c-1.222 1.202-2.714 2.149-4.475 2.84-1.762.69-3.78 1.036-6.052 1.036-1.307 0-2.595-.127-3.865-.383a20.348 20.348 0 0 1-3.65-1.093 19.067 19.067 0 0 1-3.268-1.705 16.078 16.078 0 0 1-2.714-2.215l2.216-3.664c.209-.265.46-.487.753-.667.294-.18.62-.27.98-.27.474 0 .986.194 1.535.582.55.389 1.198.82 1.946 1.293.749.473 1.63.904 2.643 1.292s2.23.582 3.65.582c2.18 0 3.865-.516 5.059-1.548 1.193-1.032 1.79-2.513 1.79-4.444 0-1.08-.27-1.96-.81-2.642-.54-.681-1.255-1.254-2.145-1.718-.89-.464-1.904-.857-3.04-1.179a100.843 100.843 0 0 1-3.467-1.05 29.9 29.9 0 0 1-3.467-1.364 11.23 11.23 0 0 1-3.04-2.073c-.89-.852-1.605-1.917-2.145-3.195-.54-1.278-.81-2.854-.81-4.729 0-1.496.298-2.953.895-4.374a11.197 11.197 0 0 1 2.614-3.777c1.146-1.098 2.553-1.978 4.22-2.641 1.667-.663 3.57-.994 5.71-.994 2.425 0 4.66.379 6.706 1.136 2.046.757 3.789 1.818 5.229 3.18l-1.876 3.608z" fill="#EB503E"/>
  </g>
</svg>
