<?xml version="1.0" encoding="UTF-8" standalone="no"?>
<svg
   xmlns:dc="http://purl.org/dc/elements/1.1/"
   xmlns:cc="http://creativecommons.org/ns#"
   xmlns:rdf="http://www.w3.org/1999/02/22-rdf-syntax-ns#"
   xmlns:svg="http://www.w3.org/2000/svg"
   xmlns="http://www.w3.org/2000/svg"
   viewBox="0 0 1043.48 233.93333"
   height="233.93333"
   width="1043.48"
   xml:space="preserve"
   id="svg2"
   version="1.1"><metadata
     id="metadata8"><rdf:RDF><cc:Work
         rdf:about=""><dc:format>image/svg+xml</dc:format><dc:type
           rdf:resource="http://purl.org/dc/dcmitype/StillImage" /></cc:Work></rdf:RDF></metadata><defs
     id="defs6" /><g
     transform="matrix(1.3333333,0,0,-1.3333333,0,233.93333)"
     id="g10"><g
       transform="scale(0.1)"
       id="g12"><path
         id="path14"
         style="fill:#171a1e;fill-opacity:1;fill-rule:nonzero;stroke:none"
         d="m 2356.78,653.961 c -26.32,-35.43 -71.88,-84.02 -128.58,-84.02 h -126.55 c -22.27,0 -46.57,8.09 -62.77,18.219 -21.26,12.149 -61.75,53.649 -73.9,71.871 -12.16,18.239 -16.2,38.481 -16.2,57.719 v 318.9 c 0,19.24 4.04,38.48 16.2,56.7 12.15,17.21 52.64,60.74 73.9,72.89 16.2,9.12 40.5,18.23 62.77,18.23 h 126.55 c 56.7,0 102.26,-49.61 128.58,-84.03 8.1,-11.14 12.15,-19.23 21.26,-35.44 l -103.26,-29.35 c 0,0 -30.37,37.46 -45.56,46.57 -1.02,1.01 -3.04,1.01 -4.05,1.01 H 2105.7 c -2.02,0 -4.05,-1.01 -4.05,-1.01 -13.16,-7.09 -35.43,-28.35 -45.55,-44.55 -1.02,-2.02 -1.02,-9.11 -1.02,-11.13 0,-1.02 0,-307.79 0,-307.79 0,-12.141 31.39,-38.461 46.57,-46.57 1.01,-1 6.08,-1 7.09,-1 h 115.42 c 1.01,0 3.03,0 5.06,1 21.26,10.129 45.56,47.59 45.56,47.59 l 103.26,-27.329 c -8.1,-18.23 -13.16,-27.339 -21.26,-38.48" /><path
         id="path16"
         style="fill:#171a1e;fill-opacity:1;fill-rule:nonzero;stroke:none"
         d="m 2471.21,574.988 v 127.571 h 124.53 V 574.988 h -124.53" /><path
         id="path18"
         style="fill:#171a1e;fill-opacity:1;fill-rule:nonzero;stroke:none"
         d="m 3029.06,574.988 v 250.075 h -220.7 V 574.988 h -106.31 v 605.442 h 106.31 V 926.301 h 220.7 v 254.129 h 106.31 V 574.988 h -106.31" /><path
         id="path20"
         style="fill:#171a1e;fill-opacity:1;fill-rule:nonzero;stroke:none"
         d="m 3241.69,574.988 v 127.571 h 124.53 V 574.988 h -124.53" /><path
         id="path22"
         style="fill:#171a1e;fill-opacity:1;fill-rule:nonzero;stroke:none"
         d="m 4026.33,1039.69 c 0,0 0,5.07 -1.02,7.09 -6.07,11.13 -22.27,31.39 -32.39,32.4 H 3809.67 V 915.172 h 178.18 c 9.11,0 29.37,19.234 37.46,33.406 0,0 1.02,2.02 1.02,4.055 z m 88.08,-149.835 c -9.12,-13.164 -40.5,-43.535 -54.67,-53.66 -8.1,-6.074 -17.21,-11.132 -26.32,-14.172 L 4153.9,574.988 H 4038.48 L 3926.1,813.93 H 3809.67 V 574.988 h -106.3 v 605.442 h 284.48 c 24.3,0 51.64,-8.11 71.89,-22.28 14.17,-10.13 45.55,-42.52 54.67,-55.69 12.14,-18.23 18.22,-40.49 18.22,-61.75 v -89.097 c 0,-22.273 -6.08,-43.535 -18.22,-61.758" /><path
         id="path24"
         style="fill:#171a1e;fill-opacity:1;fill-rule:nonzero;stroke:none"
         d="m 4358.43,719.77 c 0,0 0,-3.04 1.01,-4.051 12.15,-18.231 33.41,-37.449 44.55,-43.539 2.02,-1 4.05,-1 5.05,-1 h 145.8 c 0,0 3.03,0 5.05,1 11.15,6.09 32.41,25.308 44.56,43.539 1.01,2.031 1.01,4.051 1.01,4.051 v 312.84 c 0,0 0,4.04 -1.01,5.06 -12.15,18.22 -33.41,38.47 -44.56,44.55 -2.02,1.01 -4.04,1.01 -5.05,1.01 h -145.8 c 0,0 -4.04,0 -5.05,-1.01 -11.14,-6.08 -32.4,-26.33 -44.55,-44.55 -1.01,-2.02 -1.01,-5.06 -1.01,-5.06 z m 337.14,-58.719 c -13.17,-17.211 -52.65,-60.742 -73.92,-72.891 -16.19,-10.129 -41.5,-18.219 -62.76,-18.219 H 4405 c -22.27,0 -46.57,8.09 -62.77,18.219 -21.26,12.149 -61.76,55.68 -73.91,72.891 -12.15,18.219 -16.2,38.48 -16.2,57.699 v 316.9 c 0,19.23 4.05,39.48 16.2,57.7 12.15,17.21 52.65,60.74 73.91,72.89 16.2,10.13 40.5,18.23 62.77,18.23 h 153.89 c 21.26,0 46.57,-8.1 62.76,-18.23 21.27,-12.15 60.75,-55.68 73.92,-72.89 12.15,-18.22 16.19,-38.47 16.19,-57.7 v -316.9 c 0,-19.219 -4.04,-39.48 -16.19,-57.699" /><path
         id="path26"
         style="fill:#171a1e;fill-opacity:1;fill-rule:nonzero;stroke:none"
         d="m 5164.33,716.73 v 71.875 c 0,3.047 -1,5.071 -1,5.071 -9.12,16.203 -28.35,34.422 -37.46,34.422 H 4948.69 V 676.23 h 178.18 c 9.11,0 29.37,18.231 36.46,33.411 0,0 1,3.039 1,7.089 z m 0,250.071 v 71.879 c 0,2.03 -1,5.06 -1,5.06 -9.12,16.21 -28.35,35.44 -37.46,35.44 H 4948.69 V 926.301 h 178.18 c 9.11,0 29.37,18.222 36.46,33.41 0,0 1,2.019 1,7.09 z m 89.09,-314.86 c -9.11,-13.171 -39.48,-44.543 -53.65,-54.671 -20.25,-14.18 -48.6,-22.282 -72.9,-22.282 h -284.48 v 605.442 h 284.48 c 26.33,0 52.65,-9.12 72.9,-23.3 14.17,-10.11 44.54,-41.5 53.65,-54.67 13.17,-19.23 17.22,-42.51 17.22,-62.77 v -74.913 c 0,-42.527 -16.2,-64.793 -39.48,-88.086 23.28,-23.281 39.48,-44.539 39.48,-87.07 V 712.68 c 0,-21.258 -5.07,-42.532 -17.22,-60.739" /><path
         id="path28"
         style="fill:#171a1e;fill-opacity:1;fill-rule:nonzero;stroke:none"
         d="m 5414.43,574.988 v 605.442 h 106.3 V 574.988 h -106.3" /><path
         id="path30"
         style="fill:#171a1e;fill-opacity:1;fill-rule:nonzero;stroke:none"
         d="M 5992.53,574.988 5782.96,976.926 V 574.988 h -106.3 v 605.442 h 114.39 l 207.55,-407 v 407 h 106.31 V 574.988 h -112.38" /><path
         id="path32"
         style="fill:#171a1e;fill-opacity:1;fill-rule:nonzero;stroke:none"
         d="m 6676.94,661.051 c -12.15,-18.231 -52.65,-60.742 -73.91,-72.891 -16.2,-9.109 -41.51,-18.219 -62.77,-18.219 H 6364.1 c -59.73,0 -102.26,48.59 -128.58,84.02 -8.1,11.141 -10.12,16.187 -18.22,31.391 l 100.23,33.398 c 0,0 20.25,-28.34 44.55,-46.57 0,0 2.02,-1 7.09,-1 h 166.03 c 4.04,0 6.08,1 6.08,1 15.18,8.109 45.55,38.48 45.55,46.57 v 59.738 c 0,9.114 -7.09,16.203 -12.15,17.207 l -263.23,74.922 c -51.63,14.184 -78.96,63.789 -78.96,110.352 v 54.681 c 0,17.21 3.03,39.48 15.18,57.7 12.15,18.22 53.66,60.74 74.92,72.89 16.2,9.12 40.5,18.23 62.77,18.23 h 149.84 c 60.74,0 102.26,-49.61 128.58,-84.03 8.09,-11.14 13.16,-20.25 20.24,-35.44 l -102.25,-29.35 c 0,0 -23.29,33.4 -44.55,46.57 0,0 -1.01,1.01 -6.07,1.01 H 6388.4 c -4.05,0 -6.08,-1.01 -6.08,-1.01 -16.19,-8.11 -43.53,-36.45 -43.53,-44.55 v -50.623 c 0,-9.113 6.07,-16.195 11.14,-17.207 l 264.24,-76.945 c 51.63,-14.172 78.97,-64.797 78.97,-110.352 V 718.75 c 0,-17.199 -3.04,-39.48 -16.2,-57.699" /><path
         id="path34"
         style="fill:#171a1e;fill-opacity:1;fill-rule:nonzero;stroke:none"
         d="m 6913.87,719.77 c 0,0 0,-3.04 1.01,-4.051 12.16,-18.231 33.42,-37.449 44.55,-43.539 2.02,-1 4.05,-1 5.06,-1 h 145.79 c 0,0 3.04,0 5.06,1 11.14,6.09 32.4,25.308 44.55,43.539 1.02,2.031 1.02,4.051 1.02,4.051 v 312.84 c 0,0 0,4.04 -1.02,5.06 -12.15,18.22 -33.41,38.47 -44.55,44.55 -2.02,1.01 -4.04,1.01 -5.06,1.01 h -145.79 c 0,0 -4.04,0 -5.06,-1.01 -11.13,-6.08 -32.39,-26.33 -44.55,-44.55 -1.01,-2.02 -1.01,-5.06 -1.01,-5.06 z m 337.14,-58.719 c -13.16,-17.211 -52.64,-60.742 -73.91,-72.891 -16.19,-10.129 -41.51,-18.219 -62.77,-18.219 h -153.88 c -22.28,0 -46.58,8.09 -62.78,18.219 -21.26,12.149 -61.76,55.68 -73.9,72.891 -12.15,18.219 -16.2,38.48 -16.2,57.699 v 316.9 c 0,19.23 4.05,39.48 16.2,57.7 12.14,17.21 52.64,60.74 73.9,72.89 16.2,10.13 40.5,18.23 62.78,18.23 h 153.88 c 21.26,0 46.58,-8.1 62.77,-18.23 21.27,-12.15 60.75,-55.68 73.91,-72.89 12.15,-18.22 16.19,-38.47 16.19,-57.7 v -316.9 c 0,-19.219 -4.04,-39.48 -16.19,-57.699" /><path
         id="path36"
         style="fill:#171a1e;fill-opacity:1;fill-rule:nonzero;stroke:none"
         d="M 7713.71,574.988 7504.14,976.926 V 574.988 h -106.3 v 605.442 h 114.39 l 207.55,-407 v 407 h 106.31 V 574.988 h -112.38" /><path
         id="path38"
         style="fill:#36a3e1;fill-opacity:1;fill-rule:nonzero;stroke:none"
         d="m 558.973,1336.92 163.422,94.35 v -393.05 l 37.293,-21.54 37.351,21.57 v 393.01 l 163.406,-94.34 37.325,64.65 -238.067,137.44 -238.055,-137.44 37.325,-64.65" /><path
         id="path40"
         style="fill:#36a3e1;fill-opacity:1;fill-rule:nonzero;stroke:none"
         d="m 462,473.582 -163.41,94.34 340.379,196.516 v 43.085 L 601.621,829.074 261.262,632.57 V 821.262 H 186.617 V 546.371 L 424.676,408.93 462,473.582" /><path
         id="path42"
         style="fill:#36a3e1;fill-opacity:1;fill-rule:nonzero;stroke:none"
         d="M 1444.78,481.73 759.703,86.1992 74.6445,481.73 v 791.05 L 759.703,1668.3 1444.78,1272.78 Z M 759.703,1754.5 0,1315.88 V 438.629 L 759.703,0 1519.42,438.629 V 1315.88 L 759.703,1754.5" /><path
         id="path44"
         style="fill:#36a3e1;fill-opacity:1;fill-rule:nonzero;stroke:none"
         d="M 1057.42,1280.93 1220.83,1186.59 759.688,920.336 298.59,1186.59 462,1280.93 424.676,1345.58 186.617,1208.13 V 933.246 h 74.645 V 1121.94 L 722.41,855.688 722.395,323.23 558.973,417.578 521.648,352.93 759.703,215.488 997.77,352.941 960.445,417.59 797.039,323.25 V 855.734 L 1258.16,1121.94 V 933.246 h 74.64 v 274.884 l -238.05,137.44 -37.33,-64.64" /><path
         id="path46"
         style="fill:#36a3e1;fill-opacity:1;fill-rule:nonzero;stroke:none"
         d="M 1258.16,821.262 V 632.57 L 917.781,829.086 880.48,807.551 v -43.125 l 340.35,-196.504 -163.41,-94.34 37.33,-64.652 238.05,137.441 v 274.891 h -74.64" /><path
         id="path48"
         style="fill:#36a3e1;fill-opacity:1;fill-rule:nonzero;stroke:none"
         d="m 1533.17,279.398 h -9.87 v 49.954 h -0.3 l -19.6,-49.954 h -6.24 l -19.61,49.954 h -0.29 v -49.954 h -9.88 v 59.832 h 15.25 l 17.86,-45.46 17.58,45.46 h 15.1 z m -77.99,51.84 h -18.73 v -51.84 h -9.88 v 51.84 h -18.74 v 7.992 h 47.35 v -7.992" /></g></g></svg>