<?xml version="1.0" encoding="utf-8"?>
<!-- Generator: Adobe Illustrator 20.1.0, SVG Export Plug-In . SVG Version: 6.00 Build 0)  -->
<svg version="1.1" id="Layer_1" xmlns="http://www.w3.org/2000/svg" xmlns:xlink="http://www.w3.org/1999/xlink" x="0px" y="0px"
	 viewBox="0 0 123.4 35.7" style="enable-background:new 0 0 123.4 35.7;" xml:space="preserve">
<style type="text/css">
	.st0{fill:#000000;}
</style>
<g>
	<g>
		<g>
			<g>
				<g>
					<g>
						<polygon class="st0" points="39.9,27.9 43.6,27.9 43.6,31.3 39.9,31.3 39.9,35.3 35.8,35.3 35.8,22.9 44.2,22.9 44.2,26.4 
							39.9,26.4 						"/>
						<rect x="15.6" y="22.9" class="st0" width="4.1" height="12.4"/>
					</g>
					<g>
						
							<rect x="3.4" y="23.9" transform="matrix(0.7071 -0.7071 0.7071 0.7071 -15.3975 14.2803)" class="st0" width="12.4" height="3.6"/>
						<rect y="16.1" class="st0" width="12.4" height="3.1"/>
						
							<rect x="8.2" y="3.4" transform="matrix(0.7071 -0.7071 0.7071 0.7071 -3.9516 9.5401)" class="st0" width="2.6" height="12.4"/>
						<rect x="16.6" class="st0" width="2.1" height="12.4"/>
						
							<rect x="19.5" y="8.7" transform="matrix(0.7071 -0.7071 0.7071 0.7071 0.7896 20.9863)" class="st0" width="12.4" height="1.6"/>
						<rect x="22.9" y="17.1" class="st0" width="12.4" height="1.1"/>
					</g>
				</g>
				<path class="st0" d="M28.5,31.8c-1.5,0-2.7-1.2-2.7-2.7c0-1.5,1.2-2.7,2.7-2.7c0.9,0,1.7,0.4,2.2,1.1l2.8-2.8
					c-1.2-1.4-3-2.2-5-2.2c-3.7,0-6.7,3-6.7,6.7c0,3.7,3,6.7,6.7,6.7c2,0,3.7-0.9,5-2.2l-2.8-2.8C30.2,31.4,29.4,31.8,28.5,31.8z"/>
			</g>
		</g>
	</g>
	<g>
		<path class="st0" d="M52.4,29.1L52.4,29.1c0-3.6,2.9-6.5,6.7-6.5c3.8,0,6.6,2.8,6.6,6.4v0c0,3.6-2.9,6.4-6.7,6.4
			C55.3,35.5,52.4,32.7,52.4,29.1 M62.3,29.1L62.3,29.1c0-1.8-1.3-3.4-3.2-3.4c-1.9,0-3.1,1.5-3.1,3.3v0c0,1.8,1.3,3.3,3.2,3.3
			C61,32.4,62.3,30.9,62.3,29.1"/>
		<polygon class="st0" points="69,22.9 72.4,22.9 72.4,32.3 78.4,32.3 78.4,35.3 69,35.3 		"/>
		<path class="st0" d="M81.4,33.4l1.9-2.3c1.2,1,2.6,1.5,4,1.5c0.9,0,1.4-0.3,1.4-0.8v0c0-0.5-0.4-0.8-2.1-1.2
			C84,30,82,29.2,82,26.7v0c0-2.3,1.8-4,4.8-4c2.1,0,3.7,0.6,5.1,1.6l-1.7,2.4c-1.1-0.8-2.4-1.2-3.5-1.2c-0.8,0-1.2,0.4-1.2,0.8v0
			c0,0.6,0.4,0.8,2.1,1.2c2.8,0.6,4.6,1.5,4.6,3.9v0c0,2.5-2,4-5,4C85,35.5,82.9,34.8,81.4,33.4"/>
		<path class="st0" d="M95.2,29.1L95.2,29.1c0-3.6,2.9-6.5,6.7-6.5c3.8,0,6.7,2.8,6.7,6.4v0c0,3.6-2.9,6.4-6.7,6.4
			C98,35.5,95.2,32.7,95.2,29.1 M105,29.1L105,29.1c0-1.8-1.3-3.4-3.2-3.4c-1.9,0-3.1,1.5-3.1,3.3v0c0,1.8,1.3,3.3,3.2,3.3
			C103.8,32.4,105,30.9,105,29.1"/>
		<polygon class="st0" points="111.7,22.9 114.9,22.9 120,29.4 120,22.9 123.4,22.9 123.4,35.3 120.4,35.3 115.1,28.5 115.1,35.3 
			111.7,35.3 		"/>
	</g>
</g>
</svg>
